<?xml version="1.0" encoding="UTF-8" standalone="no"?>
<!DOCTYPE svg PUBLIC "-//W3C//DTD SVG 1.1//EN" "http://www.w3.org/Graphics/SVG/1.1/DTD/svg11.dtd">
<svg width="100%" height="100%" viewBox="0 0 140 140" version="1.1" xmlns="http://www.w3.org/2000/svg" xmlns:xlink="http://www.w3.org/1999/xlink" xml:space="preserve" xmlns:serif="http://www.serif.com/" style="fill-rule:evenodd;clip-rule:evenodd;stroke-linejoin:round;stroke-miterlimit:2;">
    <g id="레이어_2">
        <g id="레이어_1-2">
            <path d="M80.78,51.63C80.36,50.98 79.88,50.32 79.38,49.63C77.399,46.832 75.043,44.319 72.38,42.16C72.329,42.114 72.276,42.07 72.22,42.03L72.07,42C71.82,41.83 71.69,41.76 71.69,41.76C71.409,41.595 71.106,41.471 70.79,41.39C70.531,41.332 70.266,41.302 70,41.3C69.788,41.301 69.576,41.327 69.37,41.38C68.852,41.525 68.369,41.774 67.95,42.11C67.79,42.22 67.6,42.37 67.4,42.54C64.317,45.177 61.624,48.237 59.4,51.63C55.988,56.781 54.159,62.821 54.14,69C54.139,73.172 55.13,77.286 57.03,81L57.34,81.59C57.47,81.84 57.62,82.08 57.76,82.33C59.829,85.56 62.348,88.48 65.24,91C67.1,92.57 68.81,93.9 70.35,95C71.35,94.27 72.35,93.53 73.24,92.77C73.73,92.37 74.24,91.96 74.66,91.55L74.75,91.47C75.19,91.08 75.61,90.69 76.02,90.3L76.22,90.1C76.58,89.74 76.95,89.38 77.29,89.02C77.41,88.9 77.52,88.77 77.63,88.65L78.49,87.72L79.02,87.08C79.21,86.85 79.42,86.62 79.6,86.39C79.96,85.94 80.31,85.48 80.6,85.03C84.065,80.401 85.958,74.782 86,69C85.993,62.825 84.178,56.786 80.78,51.63Z" style="fill:rgb(54,54,54);fill-rule:nonzero;"/>
            <path d="M71.58,114.64L70.13,113.76C60.84,118.27 50.92,126.22 45.57,135.58C61.448,141.486 78.941,141.444 94.79,135.46C89,126.27 80.84,120.05 71.58,114.64Z" style="fill:rgb(54,54,54);fill-rule:nonzero;"/>
            <path d="M140,70C140,69.999 140,69.998 140,69.997C140,31.596 108.401,-0.003 70,-0.003C31.599,-0.003 0,31.596 0,69.997C0,93.158 11.495,114.87 30.65,127.89C31.16,127.09 32.05,125.76 32.79,124.67C33.53,123.58 42.36,111.26 55.86,104C69.36,96.74 55.54,103.75 55.38,103.61L55.1,103.36C47.9,97.1 42.92,90.23 40.23,82.77C40.23,82.69 40.17,82.62 40.13,82.53C38.739,78.764 37.953,74.802 37.8,70.79C37.731,69.1 37.755,67.407 37.87,65.72L37.87,64.85C38.044,62.492 38.405,60.151 38.95,57.85C41.48,47.35 47.55,39.39 53.47,33.77L53.42,33.77C57.435,29.914 61.961,26.626 66.87,24L66.96,24C67.89,23.533 68.919,23.293 69.96,23.3C70.684,23.293 71.404,23.408 72.09,23.64C72.776,23.872 73.35,23.84 77.79,26.91C78.63,27.47 79.56,28.13 80.58,28.91C88.91,35.24 102.28,48.61 102.28,69.06C102.28,69.9 102.28,70.73 102.21,71.56C102.21,71.89 102.15,72.21 102.12,72.56C102.12,73.05 102.05,73.56 101.99,74.03C101.93,74.5 101.87,74.88 101.8,75.3C101.73,75.72 101.7,76.07 101.63,76.44C101.56,76.81 101.43,77.44 101.32,77.88C101.26,78.19 101.2,78.5 101.12,78.81C100.99,79.34 100.84,79.81 100.69,80.37C100.62,80.63 100.56,80.89 100.48,81.14C100.3,81.7 100.11,82.25 99.91,82.8C99.84,83.01 99.77,83.22 99.69,83.42C99.47,84.01 99.23,84.59 98.98,85.17L98.77,85.66C98.5,86.27 98.2,86.88 97.9,87.48C97.83,87.61 97.77,87.74 97.71,87.87C97.38,88.49 97.03,89.11 96.71,89.73C96.65,89.83 96.6,89.93 96.54,90.02C96.16,90.67 95.76,91.3 95.34,91.93L95.2,92.14C94.77,92.79 94.31,93.44 93.83,94.08C93.802,94.131 93.769,94.178 93.73,94.22C93.24,94.88 92.73,95.53 92.19,96.22L92.12,96.3C91.57,96.96 91,97.61 90.41,98.3C89.81,98.96 89.19,99.61 88.54,100.3C87.207,101.593 85.817,102.86 84.37,104.1L85.31,104.63C98.31,112.07 106.74,123.94 107.5,125.05C108.26,126.16 108.97,127.27 109.44,128.05C128.62,114.991 140.09,93.204 140,70Z" style="fill:rgb(54,54,54);fill-rule:nonzero;"/>
            <path d="M70.1,113.78L69.36,113.32C67.67,112.32 66.42,111.54 65.06,110.66C61.873,108.589 58.798,106.349 55.85,103.95C42.35,111.26 33.54,123.56 32.78,124.67C32.02,125.78 31.15,127.09 30.64,127.89C32.918,129.447 35.289,130.863 37.74,132.13C40.262,133.446 42.864,134.605 45.53,135.6C50.89,126.24 60.81,118.29 70.1,113.78Z" style="fill:white;fill-rule:nonzero;"/>
            <path d="M70.1,113.78L69.36,113.32C67.67,112.32 66.42,111.54 65.06,110.66C61.873,108.589 58.798,106.349 55.85,103.95C42.35,111.26 33.54,123.56 32.78,124.67C32.02,125.78 31.15,127.09 30.64,127.89C32.855,129.392 35.156,130.764 37.53,132C40.12,133.359 42.791,134.554 45.53,135.58C50.89,126.24 60.81,118.29 70.1,113.78Z" style="fill:url(#_Linear1);fill-rule:nonzero;"/>
            <path d="M107.41,124.93C106.65,123.82 98.25,111.93 85.22,104.51L84.28,103.98C85.76,102.74 87.15,101.473 88.45,100.18C89.1,99.54 89.72,98.89 90.32,98.18C90.91,97.53 91.48,96.88 92.03,96.18L92.1,96.1C92.63,95.45 93.15,94.8 93.64,94.1C93.679,94.058 93.712,94.011 93.74,93.96C94.22,93.32 94.68,92.67 95.11,92.02L95.25,91.81C95.67,91.18 96.07,90.55 96.45,89.9C96.51,89.81 96.56,89.71 96.62,89.61C96.97,88.99 97.32,88.37 97.62,87.75C97.68,87.62 97.74,87.49 97.81,87.36C98.11,86.76 98.41,86.15 98.68,85.54L98.89,85.05C99.14,84.47 99.38,83.89 99.6,83.3C99.68,83.1 99.75,82.89 99.82,82.68C100.02,82.13 100.21,81.58 100.39,81.02C100.47,80.77 100.53,80.51 100.6,80.25C100.75,79.73 100.9,79.25 101.03,78.69C101.11,78.38 101.17,78.07 101.23,77.76C101.34,77.28 101.45,76.76 101.54,76.32C101.63,75.88 101.65,75.56 101.71,75.18C101.77,74.8 101.85,74.34 101.9,73.91C101.95,73.48 101.99,72.91 102.03,72.44C102.03,72.11 102.1,71.79 102.12,71.44C102.12,70.61 102.19,69.78 102.19,68.94C102.19,48.49 88.82,35.12 80.49,28.79C79.49,28.01 78.49,27.35 77.7,26.79C73.26,23.72 72,23.52 72,23.52C71.354,23.312 70.679,23.208 70,23.21C68.959,23.203 67.93,23.443 67,23.91L66.91,23.91C62.01,26.583 57.501,29.918 53.51,33.82L53.56,33.82C47.6,39.47 41.53,47.43 39,57.93C38.455,60.231 38.094,62.572 37.92,64.93C37.746,67.288 37.92,65.2 37.92,65.63L37.92,65.8C37.805,67.487 37.781,69.18 37.85,70.87C38.003,74.882 38.789,78.844 40.18,82.61C40.18,82.7 40.24,82.77 40.28,82.85C42.97,90.31 47.95,97.18 55.16,103.37L55.44,103.62C55.6,103.76 55.92,104.01 55.92,104.01C58.868,106.409 61.943,108.649 65.13,110.72C66.49,111.6 67.74,112.36 69.43,113.38L70.17,113.84L71.62,114.72C80.88,120.13 89.08,126.35 94.8,135.56C99.947,133.617 104.844,131.069 109.39,127.97C108.88,127.15 108.23,126.13 107.41,124.93ZM79.62,86.39C79.44,86.62 79.23,86.85 79.04,87.08L78.51,87.72L77.65,88.65C77.54,88.77 77.43,88.9 77.31,89.02C76.97,89.38 76.6,89.74 76.24,90.1L76.04,90.3C75.63,90.69 75.21,91.08 74.77,91.47L74.68,91.55C74.22,91.96 73.75,92.37 73.26,92.77C72.34,93.53 71.37,94.27 70.37,95C68.83,93.86 67.12,92.53 65.26,91C62.365,88.467 59.846,85.534 57.78,82.29C57.64,82.04 57.49,81.8 57.36,81.55L57,80.94C55.1,77.226 54.109,73.112 54.11,68.94C54.13,62.769 55.955,56.737 59.36,51.59C61.584,48.197 64.277,45.137 67.36,42.5C67.56,42.33 67.75,42.18 67.91,42.07C68.329,41.734 68.812,41.485 69.33,41.34C69.551,41.298 69.776,41.284 70,41.3C70.265,41.299 70.53,41.326 70.79,41.38C71.106,41.461 71.409,41.585 71.69,41.75C71.971,41.915 71.82,41.82 72.07,41.99L72.21,42.07C72.266,42.11 72.319,42.154 72.37,42.2C75.033,44.359 77.389,46.872 79.37,49.67C79.87,50.33 80.37,50.99 80.77,51.67C84.164,56.813 85.982,62.838 86,69C85.957,74.769 84.072,80.377 80.62,85C80.33,85.48 80,85.94 79.62,86.39Z" style="fill:white;fill-rule:nonzero;"/>
            <path d="M84.07,103.87L84.28,103.98C84.94,103.42 85.69,102.78 86.48,102.06C87.48,101.06 88.3,100.34 88.48,100.13C89.13,99.49 89.75,98.84 90.35,98.13C90.94,97.48 91.51,96.83 92.06,96.13L92.13,96.05C92.66,95.4 93.18,94.75 93.67,94.05C93.709,94.008 93.742,93.961 93.77,93.91C94.25,93.27 94.71,92.62 95.14,91.97L95.28,91.76C95.7,91.13 96.1,90.5 96.48,89.86L96.65,89.56C97,88.94 97.35,88.32 97.65,87.7C97.71,87.57 97.77,87.44 97.84,87.31C98.14,86.71 98.44,86.1 98.71,85.49L98.92,85C99.17,84.42 99.41,83.84 99.63,83.25C99.71,83.05 99.78,82.84 99.85,82.63C100.05,82.08 100.24,81.53 100.42,80.97C100.5,80.72 100.56,80.46 100.63,80.2C100.78,79.68 100.93,79.2 101.06,78.64C101.14,78.33 101.2,78.02 101.26,77.71C101.37,77.23 101.48,76.71 101.57,76.27C101.66,75.83 101.68,75.51 101.74,75.13C101.8,74.75 101.88,74.29 101.93,73.86C101.98,73.43 102.02,72.86 102.06,72.39C102.06,72.06 102.13,71.74 102.15,71.39C102.15,70.56 102.22,69.73 102.22,68.89C102.22,43.75 82.01,29.31 75.81,25.48L72.21,42.06C75.487,44.843 78.37,48.06 80.78,51.62C84.18,56.779 85.995,62.822 86,69C85.957,74.769 84.072,80.377 80.62,85C80.3,85.45 79.95,85.91 79.62,86.36C79.44,86.59 79.23,86.82 79.04,87.05L78.51,87.69L77.65,88.62C77.54,88.74 77.43,88.87 77.31,88.99C76.97,89.35 76.6,89.71 76.24,90.07L76.04,90.27C75.63,90.66 75.21,91.05 74.77,91.44L74.68,91.52C74.22,91.93 73.75,92.34 73.26,92.74C72.34,93.5 71.37,94.24 70.37,94.97C71.5,95.79 74.15,97.62 77.03,99.43C81,102 81.6,102.47 84.07,103.87Z" style="fill:url(#_Linear2);fill-rule:nonzero;"/>
        </g>
    </g>
    <defs>
        <linearGradient id="_Linear1" x1="0" y1="0" x2="1" y2="0" gradientUnits="userSpaceOnUse" gradientTransform="matrix(-26.39,37.41,-37.41,-26.39,66.42,98)"><stop offset="0" style="stop-color:rgb(65,65,65);stop-opacity:1"/><stop offset="0.19" style="stop-color:rgb(125,125,125);stop-opacity:1"/><stop offset="0.21" style="stop-color:rgb(141,141,141);stop-opacity:1"/><stop offset="0.26" style="stop-color:rgb(161,161,161);stop-opacity:1"/><stop offset="0.31" style="stop-color:rgb(172,172,172);stop-opacity:1"/><stop offset="0.37" style="stop-color:rgb(217,217,217);stop-opacity:1"/><stop offset="0.44" style="stop-color:rgb(247,247,247);stop-opacity:1"/><stop offset="0.53" style="stop-color:white;stop-opacity:1"/><stop offset="0.65" style="stop-color:white;stop-opacity:1"/><stop offset="0.98" style="stop-color:white;stop-opacity:1"/><stop offset="1" style="stop-color:white;stop-opacity:1"/></linearGradient>
        <linearGradient id="_Linear2" x1="0" y1="0" x2="1" y2="0" gradientUnits="userSpaceOnUse" gradientTransform="matrix(22.43,-22.84,22.84,22.43,49.75,95.91)"><stop offset="0" style="stop-color:rgb(68,68,68);stop-opacity:0.7"/><stop offset="0.05" style="stop-color:rgb(122,122,122);stop-opacity:0.7"/><stop offset="0.43" style="stop-color:rgb(120,120,120);stop-opacity:0.7"/><stop offset="0.44" style="stop-color:rgb(156,156,156);stop-opacity:0.7"/><stop offset="0.6" style="stop-color:rgb(205,205,205);stop-opacity:0.7"/><stop offset="0.74" style="stop-color:rgb(241,241,241);stop-opacity:0.7"/><stop offset="0.85" style="stop-color:white;stop-opacity:0.7"/><stop offset="0.92" style="stop-color:white;stop-opacity:0.7"/><stop offset="1" style="stop-color:white;stop-opacity:0.7"/></linearGradient>
    </defs>
</svg>
