<?xml version="1.0" encoding="UTF-8" standalone="no"?>
<!DOCTYPE svg PUBLIC "-//W3C//DTD SVG 1.1//EN" "http://www.w3.org/Graphics/SVG/1.1/DTD/svg11.dtd">
<svg width="100%" height="100%" viewBox="0 0 48 48" version="1.1" xmlns="http://www.w3.org/2000/svg" xmlns:xlink="http://www.w3.org/1999/xlink" xml:space="preserve" xmlns:serif="http://www.serif.com/" style="fill-rule:evenodd;clip-rule:evenodd;stroke-linejoin:round;stroke-miterlimit:2;">
    <path d="M0,24C0,10.745 10.745,0 24,0C37.255,0 48,10.745 48,24C48,37.255 37.255,48 24,48C10.745,48 0,37.255 0,24ZM16.961,19.878L11.522,19.878L11.522,36.22L16.961,36.22L16.961,19.878ZM17.319,14.823C17.284,13.22 16.138,12 14.277,12C12.416,12 11.2,13.22 11.2,14.823C11.2,16.392 12.381,17.647 14.206,17.647L14.241,17.647C16.138,17.647 17.319,16.392 17.319,14.823ZM36.575,26.85C36.575,21.83 33.892,19.494 30.313,19.494C27.425,19.494 26.133,21.08 25.411,22.193L25.411,19.878L19.971,19.878C20.043,21.412 19.971,36.22 19.971,36.22L25.411,36.22L25.411,27.093C25.411,26.605 25.446,26.118 25.59,25.768C25.983,24.792 26.878,23.782 28.381,23.782C30.349,23.782 31.137,25.281 31.137,27.477L31.137,36.22L36.575,36.22L36.575,26.85Z" style="fill:rgb(54,54,54);"/>
</svg>
