<?xml version="1.0" encoding="UTF-8" standalone="no"?>
<!DOCTYPE svg PUBLIC "-//W3C//DTD SVG 1.1//EN" "http://www.w3.org/Graphics/SVG/1.1/DTD/svg11.dtd">
<svg width="100%" height="100%" viewBox="0 0 100 100" version="1.1" xmlns="http://www.w3.org/2000/svg" xmlns:xlink="http://www.w3.org/1999/xlink" xml:space="preserve" xmlns:serif="http://www.serif.com/" style="fill-rule:evenodd;clip-rule:evenodd;stroke-linejoin:round;stroke-miterlimit:2;">
    <path d="M50,0C22.571,0 0,22.571 0,50C0,77.429 22.571,100 50,100C77.429,100 100,77.429 100,50C100,22.571 77.429,0 50,0ZM72.13,30.77L50,52.88L27.9,30.78L72.1,30.78L72.13,30.77ZM25,33.68L39.62,48.3L25,66.17L25,33.68ZM27.48,69.22L42.48,50.91L46.37,54.83L48.37,56.83C48.747,57.341 49.345,57.643 49.98,57.643C50.615,57.643 51.213,57.341 51.59,56.83L56.69,51.71L72.43,69.23L27.43,69.23L27.48,69.22ZM75,66.33L59.54,49.16L75,33.71L75,66.33Z" style="fill:rgb(54,54,54);fill-rule:nonzero;"/>
</svg>
